# xmcd
#
# Track frame offsets:
# 150
# 38550
# 69970
# 83577
# 100540
# 118842
# 168737
# 194517
# 228310
#
# Disc length: 3375 seconds
#
#
# Revision: 0
# Processed by: cddbd v1.5.2PL0 Copyright (c) Steve Scherf et al.
# Submitted via: FreeRIP 2.96 
#
DISCID=6a0d2d09
DTITLE=Bob Dylan - Desire
DYEAR=1975
DGENRE=Blues
TTITLE0=Hurricane
TTITLE1=Isis
TTITLE2=Mozambique
TTITLE3=One more cup of coffee
TTITLE4=Oh, sister
TTITLE5=Joey
TTITLE6=Romance in Durango
TTITLE7=Black Diamond Bay
TTITLE8=Sara
EXTD=Columbia
EXTT0=
EXTT1=
EXTT2=
EXTT3=
EXTT4=
EXTT5=
EXTT6=
EXTT7=
EXTT8=
PLAYORDER=
